<svg width="140" height="30" viewBox="0 0 140 30" fill="none" xmlns="http://www.w3.org/2000/svg">
<mask id="mask0_639_8353" style="mask-type:alpha" maskUnits="userSpaceOnUse" x="5" y="3" width="80" height="80">
<path d="M44.5649 3C66.416 3 84.1297 20.9086 84.1297 43V71C84.1297 77.6274 78.8156 83 72.2603 83H44.5649C22.7138 83 5 65.0914 5 43C5 20.9086 22.7138 3 44.5649 3Z" fill="#C4C4C4"/>
</mask>
<g mask="url(#mask0_639_8353)">
<rect width="118.695" height="120" transform="translate(-14.7822 -17.002)" fill="#2D3480"/>
</g>
<path d="M137.138 41.7223C137.138 44.4156 136.866 46.7048 136.189 48.8594C135.511 51.014 134.562 52.8992 133.342 54.3805C132.122 55.9964 130.496 57.2084 128.598 58.0164C126.701 58.8243 124.532 59.363 122.092 59.363C120.737 59.363 119.517 59.2283 118.297 58.959C117.077 58.6897 115.993 58.2857 114.908 57.8817V70.6745H105.149V25.6977C105.963 25.4283 107.047 25.159 108.131 24.8897C109.216 24.6204 110.436 24.4857 111.655 24.2164C112.875 24.0817 114.095 23.9471 115.451 23.8124C116.671 23.6777 118.026 23.6777 119.11 23.6777C121.957 23.6777 124.396 24.0817 126.701 24.8897C128.869 25.6976 130.767 26.9096 132.258 28.3909C133.749 29.8722 134.969 31.7574 135.782 34.0467C136.731 36.4706 137.138 38.8944 137.138 41.7223ZM127.243 41.9917C127.243 39.0291 126.565 36.6052 125.21 34.8546C123.854 33.104 121.821 32.1614 119.246 32.1614C118.433 32.1614 117.619 32.1614 116.806 32.296C116.128 32.296 115.451 32.4307 115.044 32.5654V50.0714C115.586 50.4753 116.399 50.7446 117.484 51.014C118.433 51.2833 119.517 51.418 120.466 51.418C124.939 51.1486 127.243 48.1861 127.243 41.9917Z" fill="#2D3480"/>
<path d="M156.927 23.6777C159.773 23.6777 162.213 23.9471 164.11 24.6204C166.008 25.2937 167.499 26.2363 168.719 27.4482C169.939 28.6602 170.752 30.1415 171.159 31.8921C171.701 33.6427 171.836 35.5279 171.836 37.6825V57.747C170.481 58.0163 168.448 58.4204 166.008 58.8243C163.568 59.2283 160.586 59.4976 157.062 59.4976C154.894 59.4976 152.86 59.363 150.963 58.959C149.201 58.555 147.574 57.8817 146.354 57.0737C144.999 56.1311 144.05 55.0538 143.372 53.5726C142.695 52.0913 142.288 50.3407 142.288 48.3207C142.288 46.3008 142.695 44.6849 143.508 43.2036C144.321 41.857 145.406 40.7797 146.761 39.8371C148.116 39.0291 149.607 38.3558 151.369 38.0865C153.132 37.6825 154.894 37.5478 156.791 37.5478C158.011 37.5478 159.231 37.5478 160.18 37.6825C161.129 37.8172 161.942 37.9518 162.62 38.0865V37.1439C162.62 35.5279 162.077 34.1813 161.129 33.2387C160.18 32.2961 158.418 31.7574 155.842 31.7574C154.216 31.7574 152.589 31.8921 150.963 32.1614C149.336 32.4307 147.981 32.7 146.761 33.104L145.541 25.2937C146.083 25.159 146.761 24.8897 147.71 24.755C148.523 24.6203 149.472 24.351 150.421 24.2164C151.369 24.0817 152.454 23.9471 153.538 23.8124C154.758 23.8124 155.842 23.6777 156.927 23.6777ZM157.74 51.9566C158.689 51.9566 159.638 51.9566 160.451 51.9566C161.264 51.9566 162.077 51.8219 162.484 51.8219V44.5502C162.077 44.4156 161.535 44.4156 160.722 44.2809C159.909 44.1462 159.231 44.1463 158.553 44.1463C157.604 44.1463 156.791 44.1462 155.978 44.2809C155.165 44.4156 154.487 44.5502 153.809 44.9542C153.267 45.2235 152.725 45.6275 152.318 46.1662C151.912 46.7048 151.776 47.3781 151.776 48.0514C151.776 49.5327 152.318 50.61 153.267 51.1486C154.622 51.6873 155.978 51.9566 157.74 51.9566Z" fill="#2D3480"/>
<path d="M180.376 16.1335L190.135 14.5176V24.6172H201.792V32.6968H190.135V44.6817C190.135 46.7016 190.541 48.3175 191.219 49.5295C191.897 50.7414 193.388 51.2801 195.557 51.2801C196.641 51.2801 197.725 51.1454 198.81 51.0107C199.894 50.8761 200.978 50.6068 201.792 50.2028L203.147 57.7438C201.927 58.2824 200.707 58.6865 199.216 58.9558C197.725 59.3598 195.963 59.4944 193.93 59.4944C191.219 59.4944 189.051 59.0904 187.288 58.4171C185.526 57.7438 184.171 56.6665 183.087 55.4546C182.002 54.2426 181.325 52.6267 180.918 50.8761C180.511 49.1255 180.24 47.1056 180.24 44.8164V16.1335H180.376Z" fill="#2D3480"/>
<path d="M230.391 33.2349C229.578 32.9656 228.494 32.8309 227.274 32.5616C226.054 32.2923 224.834 32.1576 223.479 32.1576C222.937 32.1576 222.123 32.1576 221.31 32.2922C220.497 32.4269 219.819 32.5616 219.412 32.6962V58.6859H209.653V26.3671C211.415 25.8285 213.449 25.1552 215.888 24.6166C218.193 24.0779 220.903 23.8086 223.885 23.8086C224.428 23.8086 225.105 23.8086 225.783 23.9433C226.461 23.9433 227.274 24.0779 227.952 24.2126C228.629 24.3472 229.443 24.4819 230.12 24.6166C230.798 24.7512 231.476 24.8859 232.018 25.1552L230.391 33.2349Z" fill="#2D3480"/>
<path d="M268.75 41.5877C268.75 44.2809 268.344 46.7048 267.53 48.994C266.717 51.2833 265.633 53.1686 264.142 54.6498C262.651 56.2658 260.889 57.4777 258.856 58.2857C256.822 59.0937 254.518 59.6323 251.943 59.6323C249.368 59.6323 247.063 59.2283 245.03 58.2857C242.997 57.4777 241.235 56.2658 239.744 54.6498C238.253 53.0339 237.169 51.1486 236.22 48.994C235.407 46.7048 235 44.2809 235 41.5877C235 38.8944 235.407 36.4705 236.22 34.316C237.033 32.1614 238.253 30.2762 239.744 28.6602C241.235 27.0443 242.997 25.8323 245.03 25.0243C247.063 24.2164 249.368 23.6777 251.807 23.6777C254.247 23.6777 256.551 24.0817 258.584 25.0243C260.618 25.8323 262.38 27.0443 263.871 28.6602C265.362 30.2762 266.446 32.1614 267.395 34.316C268.344 36.4705 268.75 38.8944 268.75 41.5877ZM258.72 41.5877C258.72 38.6251 258.178 36.2012 256.958 34.5853C255.738 32.8347 254.112 32.0268 251.807 32.0268C249.639 32.0268 247.877 32.8347 246.657 34.5853C245.437 36.3359 244.895 38.6251 244.895 41.5877C244.895 44.5502 245.437 46.9741 246.657 48.7247C247.877 50.4753 249.639 51.418 251.807 51.418C253.976 51.418 255.738 50.61 256.958 48.7247C258.178 46.9741 258.72 44.5502 258.72 41.5877Z" fill="#2D3480"/>
<path d="M289.894 59.3608C287.048 59.3608 284.744 58.9568 282.982 58.4182C281.22 57.8795 279.864 57.0716 278.78 55.9943C277.696 54.917 277.018 53.705 276.747 52.3584C276.34 50.8771 276.205 49.2612 276.205 47.5106V9.94013L285.964 8.32422V45.4907C285.964 46.2987 285.964 47.1066 286.099 47.7799C286.235 48.4532 286.506 48.9919 286.913 49.5306C287.319 50.0692 287.861 50.3385 288.539 50.7425C289.217 51.0118 290.166 51.2811 291.385 51.2811L289.894 59.3608Z" fill="#2D3480"/>
<path d="M310.091 23.6777C312.937 23.6777 315.377 23.9471 317.274 24.6204C319.172 25.2937 320.663 26.2363 321.883 27.4482C323.103 28.6602 323.916 30.1415 324.323 31.8921C324.865 33.6427 325 35.5279 325 37.6825V57.747C323.645 58.0163 321.612 58.4204 319.172 58.8243C316.732 59.2283 313.75 59.4976 310.226 59.4976C308.057 59.4976 306.024 59.363 304.127 58.959C302.365 58.555 300.738 57.8817 299.518 57.0737C298.163 56.1311 297.214 55.0538 296.536 53.5726C295.859 52.0913 295.452 50.3407 295.452 48.3207C295.452 46.3008 295.859 44.6849 296.672 43.2036C297.485 41.857 298.569 40.7797 299.925 39.8371C301.28 39.0291 302.771 38.3558 304.533 38.0865C306.295 37.6825 308.057 37.5478 309.955 37.5478C311.175 37.5478 312.395 37.5478 313.344 37.6825C314.292 37.8172 315.106 37.9518 315.783 38.0865V37.1439C315.783 35.5279 315.241 34.1813 314.292 33.2387C313.344 32.2961 311.582 31.7574 309.006 31.7574C307.38 31.7574 305.753 31.8921 304.127 32.1614C302.5 32.4307 301.145 32.7 299.925 33.104L298.705 25.2937C299.247 25.159 299.925 24.8897 300.874 24.755C301.687 24.6203 302.636 24.351 303.584 24.2164C304.533 24.0817 305.618 23.9471 306.702 23.8124C307.922 23.8124 309.006 23.6777 310.091 23.6777ZM310.904 51.9566C311.853 51.9566 312.801 51.9566 313.615 51.9566C314.428 51.9566 315.241 51.8219 315.648 51.8219V44.5502C315.241 44.4156 314.699 44.4156 313.886 44.2809C313.072 44.1462 312.395 44.1463 311.717 44.1463C310.768 44.1463 309.955 44.1462 309.142 44.2809C308.328 44.4156 307.651 44.5502 306.973 44.9542C306.431 45.2235 305.889 45.6275 305.482 46.1662C305.075 46.7048 304.94 47.3781 304.94 48.0514C304.94 49.5327 305.482 50.61 306.431 51.1486C307.786 51.6873 309.142 51.9566 310.904 51.9566Z" fill="#2D3480"/>
<path d="M35.8163 41.0488C35.4862 47.2667 32.186 52.6657 27.3257 55.8808C26.2456 56.6391 25.7056 57.9433 25.7056 59.2779V62.2504C25.7056 63.8276 26.9657 65.1318 28.5558 65.1318H42.2067C42.2067 66.982 43.6768 68.4683 45.5069 68.4683C47.3371 68.4683 48.8072 66.982 48.8072 65.1318H62.4581C64.0182 65.1318 65.3083 63.8579 65.3083 62.2504V59.2779C65.3083 57.9433 64.7383 56.6391 63.6882 55.8808C58.8278 52.696 55.5276 47.2667 55.1976 41.0488C55.0476 38.7739 53.1875 36.9844 50.9073 36.9844H40.1966C37.8564 36.9844 35.9963 38.7739 35.8163 41.0488Z" fill="#FFD524"/>
<path d="M61.9664 22.0273H45.5362H29.106C27.2403 22.0273 25.7056 23.4905 25.7056 25.3121V34.8079C25.7056 36.0322 26.7287 36.9878 27.9625 36.9878H30.7008C31.5133 36.9878 32.2656 36.5697 32.6568 35.8829L34.9438 32.0906C35.335 31.4037 36.0873 30.9857 36.8998 30.9857H45.5061H54.1124C54.9248 30.9857 55.6771 31.4037 56.0683 32.0906L58.3553 35.8829C58.7465 36.5697 59.4988 36.9878 60.3113 36.9878H63.0497C64.3135 36.9878 65.3066 36.0024 65.3066 34.8079V25.3121C65.3667 23.4905 63.8621 22.0273 61.9664 22.0273Z" fill="#FFD524"/>
</svg>
